# xmcd
#
# Track frame offsets:
#	150
#	14466
#	34905
#	51989
#	73556
#	90369
#	112004
#	137909
#	166241
#	180592
#	202708
#	216355
#	239692
#	257742
#
# Disc length: 3599
#
# Revision: 1
# Processed by: cddbd v1.5.1PL0 Copyright (c) Steve Scherf et al.
# Submitted via: CDex 1.51
# Normalized: r0:TDELIM( - )
#
DISCID=c70e0d0e
DTITLE=Jazz Moods - Jazz At The Norh Pole
DYEAR=2004
DGENRE=Jazz
TTITLE0=Rosemary Clooney - Let it Snow
TTITLE1=Rickey Woodard feat. Cedar Walton - Rudolph The Red-Nosed Reindeer
TTITLE2=The Frank Vignola Quintet - Jingle Bells
TTITLE3=The Gene Harris Quartet - I'll Be Home For Christmas
TTITLE4=Mary Stallings - Santa Claus Is Coming To Town
TTITLE5=Poncho Sanchez - Have Yourself a Merry Little Christmas
TTITLE6=Scott Hamilton - The Christmas Song
TTITLE7=Howard Alden and Ken Peplowski - Winter Wonderland
TTITLE8=Michael Feinstein feat. Alan Broadbent - Who Says There Ain't No Santa Claus
TTITLE9=Caribbean Jazz project - Sleigh Ride
TTITLE10=George Shearing - My Favorite Things
TTITLE11=Rob McConnell and The Boss Brass - A Christmas Love Song
TTITLE12=Dave McKenna - O Tannenbaum, O Tannenbaum
TTITLE13=Carol Sloane - What Are You Doing New Year's Eve?
EXTD=YEAR: 2004
EXTT0=
EXTT1=
EXTT2=
EXTT3=
EXTT4=
EXTT5=
EXTT6=
EXTT7=
EXTT8=
EXTT9=
EXTT10=
EXTT11=
EXTT12=
EXTT13=
PLAYORDER=
